<?xml version="1.0" encoding="UTF-8"?>
<svg width="500px" height="500px" viewBox="0 0 500 500" version="1.1" xmlns="http://www.w3.org/2000/svg" xmlns:xlink="http://www.w3.org/1999/xlink">
    <!-- Generator: Sketch 52.6 (67491) - http://www.bohemiancoding.com/sketch -->
    <title>state_08</title>
    <desc>Created with Sketch.</desc>
    <g id="state_08" stroke="none" stroke-width="1" fill="none" fill-rule="evenodd">
        <rect fill="#3778FF" x="0" y="0" width="500" height="500"></rect>
        <g id="Group" transform="translate(74.000000, 75.000000)" fill="#FFFFFF">
            <path d="M174.786685,0.914383562 C143.02346,1.02283105 111.788188,9.75570776 84.0075605,26.6678082 C43.9864711,51.0228311 15.9131748,89.413242 4.93520746,134.778539 C1.68715232,148.22032 0.0516475199,161.799087 0,175.28653 L0,176.616438 C0.12051088,208.186073 8.90058927,239.219178 25.8868847,266.827626 C32.887993,278.317352 32.887993,292.592466 25.8639303,304.127854 L9.93353967,330.954338 C8.79729423,332.906393 8.18900122,335.103881 8.18900122,337.295662 C8.18900122,344.202055 13.847274,349.824201 20.7852575,349.824201 L171.240222,349.824201 C269.066363,349.824201 349.831607,272.63242 351.26626,177.73516 C351.685179,144.761416 342.761635,112.501142 325.476932,84.4589041 C300.990269,44.6643836 262.386617,16.7363014 216.776118,5.82305936 C203.250207,2.59246575 189.598046,0.965753425 176.026225,0.914383562 L174.786685,0.914383562 Z M47.5271956,317.09589 C59.3085687,297.621005 59.3085687,273.420091 47.5042411,253.910959 C34.965371,233.682648 27.3502311,210.560502 25.4851818,187.044521 C22.30599,147.192922 34.9194621,108.511416 60.9842438,78.1061644 C87.0605028,47.6952055 123.48922,29.2077626 163.59065,26.0570776 C205.867014,22.5011416 247.787585,37.0730594 278.592461,66.0342466 C309.351429,94.8299087 326.659086,135.423516 326.079486,177.415525 C324.908809,258.705479 255.448634,324.835616 171.240222,324.835616 L42.8617029,324.835616 L47.5271956,317.09589 Z" id="Fill-1"></path>
            <path d="M162.976618,158.357306 C153.5366,158.357306 145.858335,166 145.858335,175.389269 C145.858335,184.778539 153.5366,192.415525 162.976618,192.415525 L201.035102,192.415525 C210.469382,192.415525 218.153386,184.778539 218.153386,175.389269 C218.153386,166 210.469382,158.357306 201.035102,158.357306 L162.976618,158.357306 Z" id="Fill-4"></path>
            <path d="M138.185809,213.813927 C134.95497,217.027397 133.170261,221.302511 133.170261,225.851598 C133.170261,230.400685 134.95497,234.675799 138.185809,237.894977 L163.556218,263.123288 C166.792796,266.336758 171.085279,268.11758 175.664693,268.11758 C180.232629,268.11758 184.536589,266.336758 187.767428,263.123288 C191.004006,259.90411 192.782976,255.634703 192.782976,251.079909 C192.782976,246.53653 191.004006,242.261416 187.767428,239.047945 L162.402757,213.813927 C159.062884,210.492009 154.678584,208.83105 150.294283,208.83105 C145.909982,208.83105 141.525682,210.492009 138.185809,213.813927" id="Fill-7"></path>
            <path d="M163.556218,87.6552511 L138.185809,112.883562 C134.95497,116.10274 133.170261,120.377854 133.170261,124.926941 C133.170261,129.476027 134.95497,133.751142 138.185809,136.97032 C141.525682,140.28653 145.909982,141.953196 150.294283,141.953196 C154.678584,141.953196 159.062884,140.28653 162.402757,136.97032 L187.767428,111.742009 C194.441435,105.092466 194.441435,94.2876712 187.767428,87.6552511 C184.427555,84.3333333 180.043254,82.6723744 175.658954,82.6723744 C171.274653,82.6723744 166.896091,84.3333333 163.556218,87.6552511" id="Fill-10"></path>
        </g>
    </g>
</svg>